<svg width="22" height="22" viewBox="0 0 22 22" fill="none" xmlns="http://www.w3.org/2000/svg">
<g id="Group 2618">
<path id="&#232;&#183;&#175;&#229;&#190;&#132; 51325" d="M18.07 4.31007C18.0644 4.29928 18.0552 4.29079 18.044 4.28607C16.7237 3.68034 15.3304 3.2484 13.899 3.00107C13.8858 2.99862 13.8723 3.0004 13.8602 3.00615C13.8482 3.0119 13.8383 3.02133 13.832 3.03307C13.6422 3.37749 13.47 3.73128 13.316 4.09307C11.7731 3.85888 10.2038 3.85888 8.66096 4.09307C8.50594 3.73037 8.331 3.37649 8.13697 3.03307C8.1304 3.02153 8.12046 3.01228 8.10848 3.00656C8.0965 3.00084 8.08306 2.99893 8.06996 3.00107C6.63842 3.24784 5.24506 3.6798 3.92496 4.28607C3.91382 4.29079 3.90439 4.29881 3.89796 4.30907C1.53837 7.68502 0.470811 11.7966 0.889964 15.8941C0.890862 15.9034 0.893627 15.9125 0.898093 15.9207C0.902559 15.929 0.908637 15.9362 0.915965 15.9421C2.45476 17.0807 4.17596 17.9494 6.00597 18.5111C6.01874 18.5149 6.03236 18.5147 6.04503 18.5106C6.0577 18.5065 6.06883 18.4986 6.07696 18.4881C6.46952 17.9539 6.81736 17.3884 7.11697 16.7971C7.12122 16.789 7.12369 16.78 7.12421 16.7709C7.12473 16.7618 7.12328 16.7526 7.11996 16.7441C7.11664 16.7356 7.11153 16.7278 7.10498 16.7215C7.09842 16.7151 7.09058 16.7102 7.08197 16.7071C6.53347 16.4971 6.00248 16.2439 5.49396 15.9501C5.48475 15.9446 5.47701 15.937 5.47145 15.9279C5.46588 15.9187 5.46266 15.9084 5.46207 15.8977C5.46147 15.887 5.46353 15.8763 5.46804 15.8666C5.47256 15.8569 5.4794 15.8485 5.48796 15.8421C5.5953 15.7621 5.7003 15.6797 5.80297 15.5951C5.81203 15.5876 5.82301 15.5827 5.83468 15.5811C5.84634 15.5795 5.85822 15.5813 5.86896 15.5861C7.47006 16.3373 9.21691 16.7267 10.9855 16.7267C12.754 16.7267 14.5009 16.3373 16.102 15.5861C16.1127 15.5809 16.1248 15.5789 16.1366 15.5803C16.1485 15.5818 16.1597 15.5865 16.169 15.5941C16.2723 15.6794 16.3776 15.7621 16.485 15.8421C16.4935 15.8485 16.5004 15.8569 16.5049 15.8666C16.5094 15.8763 16.5115 15.887 16.5109 15.8977C16.5103 15.9084 16.507 15.9187 16.5015 15.9279C16.4959 15.937 16.4882 15.9446 16.479 15.9501C15.9715 16.2463 15.44 16.4992 14.89 16.7061C14.8815 16.7093 14.8737 16.7143 14.8673 16.7207C14.8608 16.7271 14.8557 16.7348 14.8524 16.7433C14.8491 16.7518 14.8477 16.7609 14.8481 16.7699C14.8485 16.779 14.8509 16.7879 14.855 16.7961C15.1595 17.384 15.5068 17.9489 15.894 18.4861C15.9019 18.4969 15.9129 18.505 15.9257 18.5093C15.9384 18.5136 15.9521 18.5139 15.965 18.5101C17.7964 17.9498 19.5188 17.0809 21.058 15.9411C21.0654 15.9355 21.0716 15.9285 21.076 15.9204C21.0805 15.9123 21.0832 15.9033 21.084 15.8941C21.5128 11.7956 20.4436 7.68043 18.074 4.30907L18.07 4.31007ZM7.60596 13.5821C7.10498 13.5214 6.64358 13.2793 6.30889 12.9016C5.9742 12.5239 5.78941 12.0367 5.78941 11.5321C5.78941 11.0274 5.9742 10.5402 6.30889 10.1625C6.64358 9.78485 7.10498 9.54279 7.60596 9.48207C8.10695 9.54279 8.56836 9.78485 8.90304 10.1625C9.23773 10.5402 9.42252 11.0274 9.42252 11.5321C9.42252 12.0367 9.23773 12.5239 8.90304 12.9016C8.56836 13.2793 8.10695 13.5214 7.60596 13.5821ZM14.372 13.5821C13.871 13.5214 13.4096 13.2793 13.0749 12.9016C12.7402 12.5239 12.5554 12.0367 12.5554 11.5321C12.5554 11.0274 12.7402 10.5402 13.0749 10.1625C13.4096 9.78485 13.871 9.54279 14.372 9.48207C14.8729 9.54279 15.3344 9.78485 15.669 10.1625C16.0037 10.5402 16.1885 11.0274 16.1885 11.5321C16.1885 12.0367 16.0037 12.5239 15.669 12.9016C15.3344 13.2793 14.8729 13.5214 14.372 13.5821Z" fill="white"/>
</g>
</svg>
