<svg width="22" height="22" viewBox="0 0 22 22" fill="none" xmlns="http://www.w3.org/2000/svg">
<g id="Group 2620">
<path id="&#232;&#129;&#148;&#229;&#144;&#136; 1" d="M11.1579 20.468C9.23259 20.4684 7.35043 19.8978 5.74941 18.8285C4.1484 17.7592 2.90046 16.2391 2.16341 14.4604C1.42636 12.6818 1.23331 10.7246 1.60867 8.83622C1.98403 6.94788 2.91095 5.21326 4.27219 3.85173C5.63344 2.49021 7.36787 1.56294 9.25613 1.18719C11.1444 0.811436 13.1017 1.00409 14.8805 1.74077C16.6592 2.47745 18.1796 3.72508 19.2493 5.32588C20.3189 6.92667 20.8899 8.80872 20.8899 10.734C20.8896 13.3152 19.8643 15.7906 18.0393 17.616C16.2143 19.4413 13.7391 20.4672 11.1579 20.468ZM11.1579 18.698C12.0579 18.698 13.2809 17.024 13.8869 14.274H8.42788C9.03488 17.023 10.2609 18.698 11.1579 18.698ZM7.92288 18.012C7.29637 16.8418 6.85769 15.5804 6.62288 14.274H4.02288C4.85136 15.9336 6.22964 17.2546 7.92288 18.012ZM14.3879 18.012C16.0815 17.2552 17.4599 15.934 18.2879 14.274H15.6879C15.4537 15.5803 15.0157 16.8417 14.3899 18.012H14.3879ZM18.9229 12.501C19.1881 11.3359 19.1881 10.1261 18.9229 8.961H15.9439C15.9969 9.535 16.0229 10.127 16.0229 10.731C16.0229 11.335 15.9969 11.931 15.9439 12.5L18.9229 12.501ZM14.1679 12.501C14.2266 11.9128 14.2556 11.3221 14.2549 10.731C14.2556 10.1403 14.2266 9.54984 14.1679 8.962H8.14888C8.03109 10.1391 8.03109 11.3249 8.14888 12.502L14.1679 12.501ZM6.36788 12.501C6.31488 11.927 6.28788 11.336 6.28788 10.732C6.28788 10.128 6.31388 9.532 6.36788 8.962H3.38988C3.12778 10.1274 3.12778 11.3366 3.38988 12.502L6.36788 12.501ZM18.2879 7.192C17.4601 5.5314 16.0817 4.20953 14.3879 3.452C15.0168 4.62231 15.4572 5.88448 15.6929 7.192H18.2879ZM13.8879 7.192C13.2819 4.442 12.0539 2.767 11.1589 2.767C10.2639 2.767 9.03488 4.445 8.42788 7.195L13.8879 7.192ZM6.62288 7.192C6.8573 5.88581 7.29601 4.62468 7.92288 3.455C6.22912 4.2126 4.85072 5.53445 4.02288 7.195L6.62288 7.192Z" fill="white"/>
</g>
</svg>
