<svg width="22" height="22" viewBox="0 0 22 22" fill="none" xmlns="http://www.w3.org/2000/svg">
<g id="Group 2617">
<g id="&#231;&#187;&#132; 12032">
<path id="&#232;&#183;&#175;&#229;&#190;&#132; 51326" d="M10.7277 8.20605C10.1739 8.20605 9.63258 8.37025 9.17212 8.67792C8.71166 8.98559 8.3528 9.42291 8.14087 9.93454C7.92894 10.4462 7.8735 11.0092 7.98154 11.5523C8.08958 12.0955 8.35625 12.5943 8.74783 12.9859C9.13942 13.3775 9.63831 13.6442 10.1815 13.7522C10.7246 13.8603 11.2876 13.8048 11.7992 13.5929C12.3109 13.381 12.7482 13.0221 13.0558 12.5616C13.3635 12.1012 13.5277 11.5598 13.5277 11.006C13.5277 10.2634 13.2327 9.55126 12.7076 9.02615C12.1825 8.50105 11.4703 8.20605 10.7277 8.20605Z" fill="white"/>
<path id="&#232;&#183;&#175;&#229;&#190;&#132; 51327" d="M19.1184 11.0048C19.1184 9.84581 19.1284 8.69781 19.0634 7.54181C19.0963 6.89333 18.9928 6.24517 18.7596 5.6392C18.5263 5.03322 18.1686 4.48289 17.7095 4.02376C17.2504 3.56463 16.7 3.20691 16.0941 2.97369C15.4881 2.74047 14.8399 2.63695 14.1914 2.66981C13.0324 2.60481 11.8844 2.61481 10.7284 2.61481C9.57244 2.61481 8.42144 2.60481 7.26544 2.66981C6.61696 2.63695 5.96881 2.74047 5.36283 2.97369C4.75685 3.20691 4.20652 3.56463 3.7474 4.02376C3.28827 4.48289 2.93054 5.03322 2.69732 5.6392C2.46411 6.24517 2.36059 6.89333 2.39344 7.54181C2.32844 8.70081 2.33844 9.84881 2.33844 11.0048C2.33844 12.1608 2.32844 13.3118 2.39344 14.4678C2.35997 15.1169 2.46314 15.7657 2.69628 16.3724C2.92942 16.9791 3.28732 17.5301 3.74685 17.9897C4.20637 18.4493 4.75727 18.8073 5.3639 19.0406C5.97052 19.2738 6.61937 19.3771 7.26844 19.3438C8.42744 19.4088 9.57544 19.3988 10.7314 19.3988C11.8874 19.3988 13.0384 19.4088 14.1944 19.3438C14.8429 19.3767 15.4911 19.2731 16.097 19.0399C16.703 18.8067 17.2534 18.449 17.7125 17.9899C18.1716 17.5307 18.5293 16.9804 18.7626 16.3744C18.9958 15.7684 19.0993 15.1203 19.0664 14.4718C19.1314 13.3108 19.1184 12.1628 19.1184 11.0048ZM10.7264 15.3098C9.875 15.3098 9.04267 15.0573 8.33471 14.5843C7.62676 14.1112 7.07498 13.4389 6.74914 12.6523C6.42331 11.8656 6.33805 11 6.50416 10.1649C6.67027 9.32986 7.08028 8.56278 7.68235 7.96071C8.28441 7.35865 9.05149 6.94864 9.88658 6.78253C10.7217 6.61642 11.5873 6.70167 12.3739 7.02751C13.1605 7.35334 13.8329 7.90513 14.3059 8.61308C14.779 9.32103 15.0314 10.1534 15.0314 11.0048C15.0321 11.5703 14.9212 12.1304 14.7051 12.653C14.489 13.1756 14.1719 13.6505 13.772 14.0504C13.3721 14.4503 12.8973 14.7673 12.3747 14.9834C11.8521 15.1996 11.292 15.3105 10.7264 15.3098ZM15.2074 7.52881C15.0087 7.52881 14.8144 7.46986 14.6491 7.35943C14.4838 7.249 14.355 7.09205 14.2789 6.90841C14.2029 6.72477 14.183 6.52269 14.2218 6.32774C14.2605 6.13279 14.3562 5.95372 14.4968 5.81317C14.6374 5.67262 14.8164 5.5769 15.0114 5.53812C15.2063 5.49934 15.4084 5.51925 15.592 5.59531C15.7757 5.67138 15.9326 5.80019 16.0431 5.96546C16.1535 6.13073 16.2124 6.32504 16.2124 6.52381C16.2131 6.65589 16.1876 6.78679 16.1374 6.90896C16.0872 7.03112 16.0133 7.14213 15.9199 7.23557C15.8266 7.32901 15.7156 7.40304 15.5935 7.45337C15.4714 7.5037 15.3395 7.52934 15.2074 7.52881Z" fill="white"/>
</g>
</g>
</svg>
