<svg width="22" height="22" viewBox="0 0 22 22" fill="none" xmlns="http://www.w3.org/2000/svg">
<g id="Group 2621">
<g id="&#231;&#187;&#132; 16">
<g id="&#232;&#183;&#175;&#229;&#190;&#132; 1">
<path d="M7.88219 11.8627C7.87053 11.8762 7.86169 11.8918 7.85619 11.9088L7.02318 14.9628C6.9999 15.0507 7.0001 15.1432 7.02373 15.231C7.04736 15.3188 7.09359 15.3989 7.15785 15.4633C7.22212 15.5276 7.30215 15.574 7.38994 15.5978C7.47773 15.6216 7.57023 15.6219 7.65819 15.5987L10.6912 14.7717C10.6912 14.7717 10.6982 14.7717 10.7022 14.7717C10.7198 14.772 10.7373 14.7687 10.7536 14.7619C10.77 14.7552 10.7848 14.7453 10.7972 14.7327L18.9072 6.62474C19.0274 6.50247 19.1223 6.35761 19.1863 6.19852C19.2503 6.03942 19.2822 5.86924 19.2802 5.69775C19.275 5.27987 19.105 4.88093 18.8072 4.58775L18.0412 3.82074C17.7476 3.52293 17.3484 3.35297 16.9302 3.34775C16.7587 3.3457 16.5885 3.3776 16.4294 3.44162C16.2703 3.50564 16.1255 3.60051 16.0032 3.72075L7.89418 11.8317C7.88618 11.8397 7.88819 11.8507 7.88219 11.8597M18.1132 5.83174L17.3072 6.63175L16.0012 5.30475L16.7952 4.51074C16.8696 4.45104 16.9638 4.42168 17.0589 4.42854C17.1541 4.43541 17.2431 4.47799 17.3082 4.54775L18.0742 5.31474C18.1528 5.39143 18.198 5.49596 18.2002 5.60574C18.2011 5.68784 18.1695 5.76696 18.1122 5.82575M9.32417 11.9818L15.1762 6.12975L16.4822 7.45674L10.6412 13.2977L9.32417 11.9818ZM8.25817 14.3548L8.68117 12.8028L9.80919 13.9307L8.25817 14.3548Z" fill="white"/>
<path d="M7.88219 11.8627C7.87053 11.8762 7.86169 11.8918 7.85619 11.9088L7.02318 14.9628C6.9999 15.0507 7.0001 15.1432 7.02373 15.231C7.04736 15.3188 7.09359 15.3989 7.15785 15.4633C7.22212 15.5276 7.30215 15.574 7.38994 15.5978C7.47773 15.6216 7.57023 15.6219 7.65819 15.5987L10.6912 14.7717C10.6912 14.7717 10.6982 14.7717 10.7022 14.7717C10.7198 14.772 10.7373 14.7687 10.7536 14.7619C10.77 14.7552 10.7848 14.7453 10.7972 14.7327L18.9072 6.62474C19.0274 6.50247 19.1223 6.35761 19.1863 6.19852C19.2503 6.03942 19.2822 5.86924 19.2802 5.69775C19.275 5.27987 19.105 4.88093 18.8072 4.58775L18.0412 3.82074C17.7476 3.52293 17.3484 3.35297 16.9302 3.34775C16.7587 3.3457 16.5885 3.3776 16.4294 3.44162C16.2703 3.50564 16.1255 3.60051 16.0032 3.72075L7.89418 11.8317C7.88618 11.8397 7.88819 11.8507 7.88219 11.8597M18.1132 5.83174L17.3072 6.63175L16.0012 5.30475L16.7952 4.51074C16.8696 4.45104 16.9638 4.42168 17.0589 4.42854C17.1541 4.43541 17.2431 4.47799 17.3082 4.54775L18.0742 5.31474C18.1528 5.39143 18.198 5.49596 18.2002 5.60574C18.2011 5.68784 18.1695 5.76696 18.1122 5.82575M9.32417 11.9818L15.1762 6.12975L16.4822 7.45674L10.6412 13.2977L9.32417 11.9818ZM8.25817 14.3548L8.68117 12.8028L9.80919 13.9307L8.25817 14.3548Z" stroke="white" stroke-width="0.4"/>
</g>
<g id="&#232;&#183;&#175;&#229;&#190;&#132; 2">
<path d="M18.6277 9.04819C18.4791 9.04845 18.3367 9.10767 18.2317 9.21285C18.1267 9.31803 18.0677 9.46057 18.0677 9.60918V17.1692C18.0674 17.3597 17.9916 17.5423 17.8568 17.6769C17.722 17.8116 17.5392 17.8872 17.3487 17.8872H4.55971C4.3691 17.8872 4.18626 17.8116 4.05129 17.677C3.91632 17.5424 3.84024 17.3598 3.83971 17.1692V4.83018C3.83997 4.6394 3.91594 4.45653 4.05094 4.32172C4.18594 4.18691 4.36892 4.11119 4.55971 4.11119H12.7957C12.9441 4.11119 13.0864 4.05224 13.1913 3.94731C13.2963 3.84238 13.3552 3.70008 13.3552 3.55169C13.3552 3.4033 13.2963 3.26099 13.1913 3.15606C13.0864 3.05113 12.9441 2.99219 12.7957 2.99219H4.47371C4.00895 2.99272 3.56337 3.17757 3.23473 3.50621C2.9061 3.83485 2.72123 4.28042 2.7207 4.74519V17.2542C2.72123 17.719 2.9061 18.1645 3.23473 18.4932C3.56337 18.8218 4.00895 19.0067 4.47371 19.0072H17.4317C17.8966 19.0069 18.3423 18.8221 18.671 18.4934C18.9997 18.1648 19.1844 17.719 19.1847 17.2542V9.60519C19.1839 9.45736 19.1247 9.31584 19.02 9.21149C18.9153 9.10715 18.7735 9.04845 18.6257 9.04819" fill="white"/>
<path d="M18.6277 9.04819C18.4791 9.04845 18.3367 9.10767 18.2317 9.21285C18.1267 9.31803 18.0677 9.46057 18.0677 9.60918V17.1692C18.0674 17.3597 17.9916 17.5423 17.8568 17.6769C17.722 17.8116 17.5392 17.8872 17.3487 17.8872H4.55971C4.3691 17.8872 4.18626 17.8116 4.05129 17.677C3.91632 17.5424 3.84024 17.3598 3.83971 17.1692V4.83018C3.83997 4.6394 3.91594 4.45653 4.05094 4.32172C4.18594 4.18691 4.36892 4.11119 4.55971 4.11119H12.7957C12.9441 4.11119 13.0864 4.05224 13.1913 3.94731C13.2963 3.84238 13.3552 3.70008 13.3552 3.55169C13.3552 3.4033 13.2963 3.26099 13.1913 3.15606C13.0864 3.05113 12.9441 2.99219 12.7957 2.99219H4.47371C4.00895 2.99272 3.56337 3.17757 3.23473 3.50621C2.9061 3.83485 2.72123 4.28042 2.7207 4.74519V17.2542C2.72123 17.719 2.9061 18.1645 3.23473 18.4932C3.56337 18.8218 4.00895 19.0067 4.47371 19.0072H17.4317C17.8966 19.0069 18.3423 18.8221 18.671 18.4934C18.9997 18.1648 19.1844 17.719 19.1847 17.2542V9.60519C19.1839 9.45736 19.1247 9.31584 19.02 9.21149C18.9153 9.10715 18.7735 9.04845 18.6257 9.04819" stroke="white" stroke-width="0.4"/>
</g>
</g>
</g>
</svg>
