<svg width="22" height="22" viewBox="0 0 22 22" fill="none" xmlns="http://www.w3.org/2000/svg">
<g id="Group 2616">
<path id="&#232;&#183;&#175;&#229;&#190;&#132; 51328" d="M17.6639 6.08357L19.0009 4.79958V4.51758H14.3719L11.0719 12.7686L7.31891 4.51758H2.4649V4.79858L4.02591 6.68658C4.10119 6.75555 4.1595 6.84098 4.19627 6.93622C4.23305 7.03146 4.24729 7.13392 4.2379 7.23558V14.6556C4.26126 14.7872 4.25306 14.9224 4.21394 15.0502C4.17483 15.178 4.10592 15.2946 4.01291 15.3906L2.25391 17.5356V17.8126H7.23891V17.5316L5.4819 15.3946C5.38772 15.299 5.31689 15.1829 5.27492 15.0554C5.23294 14.9279 5.22095 14.7925 5.2399 14.6596V8.24059L9.61591 17.8176H10.1239L13.8879 8.24059V15.8706C13.8879 16.0706 13.8879 16.1126 13.7569 16.2456L12.4029 17.5606V17.8416H18.9709V17.5606L17.6649 16.2766C17.6092 16.2328 17.5662 16.175 17.5402 16.1091C17.5142 16.0432 17.5062 15.9716 17.5169 15.9016V6.45958C17.5059 6.3895 17.5137 6.31775 17.5395 6.25168C17.5653 6.18561 17.6083 6.12758 17.6639 6.08357Z" fill="white"/>
</g>
</svg>
