<svg width="22" height="22" viewBox="0 0 22 22" fill="none" xmlns="http://www.w3.org/2000/svg">
<g id="Group 2619">
<path id="&#232;&#183;&#175;&#229;&#190;&#132; 51310" d="M21.2971 4.84176C20.5801 5.15497 19.8204 5.35923 19.0431 5.44777C19.8604 4.96252 20.4724 4.19547 20.7641 3.29077C19.9973 3.74713 19.1572 4.06719 18.2811 4.23677C17.744 3.66421 17.0472 3.26631 16.2811 3.09471C15.515 2.9231 14.715 2.9857 13.985 3.2744C13.255 3.56309 12.6285 4.06455 12.187 4.7137C11.7455 5.36284 11.5093 6.1297 11.5091 6.91476C11.5121 7.21736 11.5456 7.51888 11.6091 7.81475C10.0518 7.73522 8.52873 7.32911 7.13862 6.62277C5.74851 5.91643 4.52246 4.92565 3.54008 3.71476C3.0379 4.57805 2.8837 5.6003 3.10889 6.5733C3.33407 7.5463 3.9217 8.39687 4.75208 8.95176C4.13128 8.92665 3.52517 8.75534 2.98308 8.45176V8.49977C2.98172 9.40396 3.29345 10.2807 3.86531 10.9811C4.43717 11.6815 5.23389 12.1623 6.12008 12.3418C5.78369 12.4291 5.43763 12.4738 5.09008 12.4748C4.84263 12.4723 4.59568 12.4523 4.35108 12.4148C4.602 13.192 5.0894 13.8714 5.74522 14.3582C6.40103 14.8449 7.1925 15.1147 8.00908 15.1298C6.62353 16.2171 4.91232 16.8064 3.15108 16.8028C2.83507 16.8055 2.51919 16.7894 2.20508 16.7548C3.88857 17.8314 5.83063 18.4355 7.82779 18.5037C9.82495 18.5719 11.8037 18.1017 13.5567 17.1424C15.3097 16.1832 16.7725 14.7701 17.7918 13.0512C18.811 11.3324 19.3493 9.37107 19.3501 7.37275C19.3501 7.20275 19.3501 7.03276 19.3391 6.86276C20.1004 6.30358 20.7623 5.6204 21.2971 4.84176Z" fill="white"/>
</g>
</svg>
