<svg width="24" height="24" viewBox="0 0 24 24" fill="none" xmlns="http://www.w3.org/2000/svg">
<g id="&#229;&#164;&#154;&#232;&#175;&#173;&#232;&#168;&#128;">
<g id="&#231;&#188;&#150;&#231;&#187;&#132;">
<path id="&#232;&#183;&#175;&#229;&#190;&#132;" fill-rule="evenodd" clip-rule="evenodd" d="M12.0002 22.793C17.9649 22.793 22.8002 17.961 22.8002 12.0005C22.8002 6.03994 17.9649 1.20801 12.0002 1.20801C6.03552 1.20801 1.2002 6.03994 1.2002 12.0005C1.2002 17.961 6.03552 22.793 12.0002 22.793Z" stroke="white" stroke-opacity="0.6" stroke-width="1.6"/>
<path id="&#232;&#183;&#175;&#229;&#190;&#132;_2" d="M2.28027 15.7699C3.70151 16.3394 4.72464 16.3394 5.34958 15.7699C6.28702 14.9156 5.4781 12.3229 6.791 11.6078C8.10385 10.8928 10.1041 14.0624 11.9737 13.0195C13.8432 11.9765 11.7976 9.19549 13.095 8.06805C14.3924 6.94061 16.0794 8.21213 16.3743 6.32695C16.6692 4.4418 14.9984 5.25941 14.6778 3.47797C14.464 2.29035 14.464 1.66586 14.6778 1.60449" stroke="white" stroke-opacity="0.6" stroke-width="1.6" stroke-linecap="round"/>
<path id="&#232;&#183;&#175;&#229;&#190;&#132;_3" d="M14.7113 22.4429C13.6993 21.4079 13.335 20.4459 13.6184 19.5567C14.0435 18.2229 14.7447 18.3018 15.0504 17.4771C15.3561 16.6524 14.4925 15.4779 16.4088 14.4738C17.6863 13.8044 19.4429 14.58 21.6784 16.8005" stroke="white" stroke-opacity="0.6" stroke-width="1.6" stroke-linecap="round"/>
</g>
</g>
</svg>
