<svg width="36" height="36" viewBox="0 0 36 36" fill="none" xmlns="http://www.w3.org/2000/svg">
<g id="Group 18">
<g id="Group 5 1" clip-path="url(#clip0_505_15035)">
<path id="Vector" d="M3.04907 32.2042C5.43846 26.7316 9.14415 21.935 13.8361 18.2414C18.5281 14.5477 24.0607 12.0717 29.9412 11.0339C21.3054 15.6559 14.7236 23.3566 11.503 32.607C11.4667 32.7127 11.3986 32.8047 11.3082 32.8705C11.2177 32.9362 11.1092 32.9724 10.9974 32.9744H3.54962C3.45804 32.9753 3.36772 32.953 3.28701 32.9097C3.2063 32.8664 3.13783 32.8034 3.08792 32.7267C3.03801 32.6498 3.00829 32.5617 3.0015 32.4703C2.99471 32.379 3.01107 32.2875 3.04907 32.2042Z" fill="url(#paint0_linear_505_15035)"/>
<path id="Vector_2" fill-rule="evenodd" clip-rule="evenodd" d="M25.2102 10.7726L22.6416 3.36864C22.6052 3.26288 22.5373 3.17088 22.4468 3.10514C22.3563 3.0394 22.2478 3.00312 22.136 3.00122H13.4883C13.6018 3.00128 13.7124 3.0367 13.8048 3.10255C13.8973 3.16839 13.9669 3.2614 14.004 3.36864L14.4759 4.73044L17.69 14.017C20.0706 12.6638 22.5924 11.5758 25.2102 10.7726Z" fill="url(#paint1_linear_505_15035)"/>
<path id="Vector_3" fill-rule="evenodd" clip-rule="evenodd" d="M32.6434 32.2428L26.5759 14.7146C24.1513 16.4258 21.9388 18.419 19.9844 20.6523L24.122 32.6051C24.1593 32.7121 24.2289 32.8048 24.3214 32.8704C24.4138 32.936 24.5245 32.971 24.6377 32.9708H32.1276C32.2151 32.9708 32.3012 32.9501 32.3789 32.91C32.4566 32.8699 32.5235 32.8117 32.5741 32.7403C32.6247 32.669 32.6573 32.5866 32.6695 32.4999C32.6814 32.4133 32.6725 32.3252 32.6434 32.2428Z" fill="url(#paint2_linear_505_15035)"/>
<path id="Subtract" fill-rule="evenodd" clip-rule="evenodd" d="M17.6929 14.0154C17.7929 13.9587 17.8931 13.9025 17.9936 13.8467L21.4975 3.72426C21.5257 3.64211 21.5338 3.55443 21.5213 3.4685C21.5088 3.38258 21.476 3.30088 21.4256 3.23019C21.3752 3.1595 21.3086 3.10185 21.2314 3.06203C21.1542 3.02221 21.0686 3.00136 20.9818 3.00122H13.531C13.6312 3.00817 13.7278 3.04281 13.8098 3.10163C13.902 3.16776 13.9711 3.26113 14.0075 3.36861L14.4794 4.73041L17.6929 14.0154ZM13.2144 3.07717C13.2011 3.08505 13.1881 3.09351 13.1754 3.10255C13.083 3.16839 13.0133 3.2614 12.9762 3.36864L12.7103 4.13695L12.9794 3.36861C13.0158 3.26113 13.085 3.16776 13.1772 3.10163C13.1893 3.09294 13.2017 3.08479 13.2144 3.07717ZM12.439 4.92057C12.8214 4.73058 13.1199 4.75558 13.2778 5.20907L16.5584 14.6853C15.2913 15.464 14.0714 16.318 12.9054 17.2428C10.0353 19.5214 7.51217 22.2057 5.41553 25.2114L12.439 4.92057Z" fill="url(#paint3_linear_505_15035)"/>
</g>
</g>
<defs>
<linearGradient id="paint0_linear_505_15035" x1="28.7384" y1="23.6736" x2="3.59965" y2="23.7949" gradientUnits="userSpaceOnUse">
<stop stop-color="#00E6FF"/>
<stop offset="0.288689" stop-color="#5D59FF"/>
<stop offset="0.595223" stop-color="#FF0A8D"/>
<stop offset="0.951641" stop-color="#FDDB62"/>
</linearGradient>
<linearGradient id="paint1_linear_505_15035" x1="24.6869" y1="9.34724" x2="13.7491" y2="9.39299" gradientUnits="userSpaceOnUse">
<stop stop-color="#00E6FF"/>
<stop offset="0.288689" stop-color="#5D59FF"/>
<stop offset="0.595223" stop-color="#FF0A8D"/>
<stop offset="0.951641" stop-color="#FDDB62"/>
</linearGradient>
<linearGradient id="paint2_linear_505_15035" x1="32.1081" y1="25.2318" x2="20.2666" y2="25.2641" gradientUnits="userSpaceOnUse">
<stop stop-color="#00E6FF"/>
<stop offset="0.288689" stop-color="#5D59FF"/>
<stop offset="0.595223" stop-color="#FF0A8D"/>
<stop offset="0.951641" stop-color="#FDDB62"/>
</linearGradient>
<linearGradient id="paint3_linear_505_15035" x1="20.8077" y1="15.7962" x2="5.7739" y2="15.8391" gradientUnits="userSpaceOnUse">
<stop stop-color="#00E6FF"/>
<stop offset="0.288689" stop-color="#5D59FF"/>
<stop offset="0.595223" stop-color="#FF0A8D"/>
<stop offset="0.951641" stop-color="#FDDB62"/>
</linearGradient>
<clipPath id="clip0_505_15035">
<rect width="29.8315" height="30" fill="white" transform="translate(3 3)"/>
</clipPath>
</defs>
</svg>
