<svg xmlns="http://www.w3.org/2000/svg" xmlns:xlink="http://www.w3.org/1999/xlink" width="70" height="71" viewBox="0 0 70 71"><defs><style>.a{fill:#f17c0b;stroke:#707070;}.b{fill:#5083fc;}.c{clip-path:url(#a);}.d{fill:#fff;}</style><clipPath id="a"><rect class="a" width="56.545" height="56.545" transform="translate(0 0)"/></clipPath></defs><g transform="translate(-9.566 -9.099)"><g transform="translate(9.561 9.561)"><rect class="b" width="70" height="71" rx="35" transform="translate(0.006 -0.462)"/><g class="c" transform="translate(4.48 6.739)"><g transform="translate(3.278 10.411)"><g transform="translate(0 0)"><path class="d" d="M2.027,18.275c.128-.068.219-.121.312-.168a57.763,57.763,0,0,1,7.024-2.918c3.517-1.227,7.105-2.209,10.722-3.085,3.215-.781,6.451-1.458,9.714-2,2.162-.359,4.331-.675,6.5-.97,2.065-.285,4.133-.512,6.2-.754q2.589-.3,5.18-.577a7.74,7.74,0,0,1,.815,0c-.058.143-.188.15-.285.194-.965.428-1.935.846-2.9,1.275C40.161,11.569,35.1,14.047,30.178,16.81,27,18.6,23.934,20.568,20.947,22.653c-.42.294-.855.57-1.271.869a.906.906,0,0,1-.889.131c-1.17-.39-2.348-.758-3.523-1.14-.091-.03-.182-.064-.331-.117a101.488,101.488,0,0,1,12.528-7.385c-.1.034-.2.066-.3.1a91.143,91.143,0,0,0-8.319,3.734c-1.773.891-3.534,1.807-5.293,2.725a1.231,1.231,0,0,1-1.02.086c-1.3-.428-2.612-.839-3.919-1.258-.091-.029-.181-.066-.285-.1A99.183,99.183,0,0,1,18.64,15.744c3.5-1.344,7.067-2.507,10.668-3.577-.285.051-.584.1-.875.157A57.992,57.992,0,0,0,21.4,14.218,126.681,126.681,0,0,0,8.4,19.317l-.892.4a1.208,1.208,0,0,1-.895.054L2.129,18.338a.982.982,0,0,1-.1-.063Z" transform="translate(-2.027 3.029)"/><path class="d" d="M7.173,4.351c.143.009.245.009.346.023l5.24.8,4.479.675c.557.084,1.113.172,1.67.249a6.169,6.169,0,0,0,.713.061c.4.009.811-.016,1.214,0a15.348,15.348,0,0,0,2.913-.285c.559-.077,1.114-.165,1.67-.248a1.372,1.372,0,0,1,.834.143c1.253.63,2.5,1.264,3.759,1.888a.832.832,0,0,1,.475.7q.151,1.191.312,2.378l.57,4.227c.019.135.027.272.043.439l-8.362,1.03c-.2-1.315-.356-2.633-.536-3.949s-.351-2.621-.524-3.92a18.049,18.049,0,0,0-2.782-.016c-.4,2.889-.8,5.788-1.2,8.671L9.221,19.046a1.492,1.492,0,0,1,0-.2q.365-2.641.735-5.28.342-2.494.68-4.988c.071-.527.143-1.056.225-1.582a.485.485,0,0,0-.276-.57c-1.033-.58-2.055-1.18-3.079-1.774a.589.589,0,0,1-.332-.306Z" transform="translate(8.999 -4.351)"/><path class="d" d="M12.472,12.635c2.6-1.357,5.248-2.639,7.962-3.885.048.333.1.63.143.928l.57,4.314c.207,1.546.409,3.092.618,4.638.165,1.223.338,2.444.5,3.667.143,1.106.294,2.212.44,3.317.081.606.165,1.213.241,1.82.038.316.007.359-.308.406-.855.127-1.7.248-2.549.373l-4.687.688c-.157.023-.312.05-.469.068-.237.028-.285,0-.314-.232q-.151-1.023-.285-2.052-.255-1.861-.5-3.726l-.507-3.785-.57-4.227-.285-2.172a1.1,1.1,0,0,1,0-.141Z" transform="translate(20.348 5.074)"/><path class="d" d="M6.938,24.72a4.446,4.446,0,0,1,0-.57c.2-1.466.41-2.931.617-4.4.091-.656.191-1.31.268-1.965a.751.751,0,0,1,.362-.594q3.689-2.452,7.366-4.921c.477-.316.976-.6,1.465-.9.066-.04.143-.071.259-.134-.011.165-.013.285-.03.406l-.57,4.164q-.182,1.3-.359,2.609a.869.869,0,0,1-.442.631c-.7.442-1.4.889-2.1,1.335L7.4,24.45C7.264,24.536,7.119,24.613,6.938,24.72Z" transform="translate(8.475 10.41)"/></g></g></g></g></g></svg>