<svg width="16" height="16" viewBox="0 0 16 16" fill="none" xmlns="http://www.w3.org/2000/svg">
<g id="Group 2432">
<g id="Group 2722">
<circle id="Ellipse 83" cx="8" cy="8" r="8" fill="#4A45FF"/>
<path id="&#232;&#129;&#148;&#229;&#144;&#136; 132" d="M5.98052 12.5151C6.03224 12.1256 6.08615 11.736 6.13958 11.3463C6.1638 11.1733 6.18927 10.998 6.20849 10.8243C6.21067 10.7922 6.22034 10.7612 6.23667 10.7338C6.253 10.7065 6.2755 10.6836 6.30224 10.6672C6.93663 10.2324 7.56976 9.79377 8.20461 9.35849C8.32696 9.27399 8.45633 9.19918 8.58259 9.11937C8.59915 9.10935 8.61712 9.10046 8.64931 9.08398C8.64618 9.12793 8.64618 9.16057 8.64149 9.19143C8.59212 9.56035 8.54238 9.92911 8.49227 10.2977C8.46102 10.5292 8.43024 10.7603 8.39993 10.9912C8.39466 11.0264 8.38156 11.0598 8.36165 11.0889C8.34175 11.118 8.31559 11.1419 8.28524 11.1587C8.10414 11.2762 7.92351 11.3954 7.74336 11.5142C7.19564 11.8746 6.64772 12.2349 6.09958 12.5951C6.06443 12.618 6.02646 12.6384 5.97974 12.6668C5.9767 12.6163 5.97696 12.5656 5.98052 12.5151ZM11.0292 12.3169C11.0034 12.1356 10.9786 11.9545 10.9546 11.772C10.9108 11.4423 10.8675 11.112 10.8246 10.7811C10.7808 10.4472 10.737 10.1121 10.6934 9.77583C10.6449 9.40142 10.5963 9.02711 10.5478 8.65291C10.5225 8.46096 10.4984 8.26789 10.4739 8.07546C10.4732 8.06308 10.4732 8.05067 10.4739 8.03829C11.1457 7.67831 11.8289 7.33691 12.5294 7.00585C12.5419 7.09488 12.5544 7.17421 12.5645 7.25289C12.6148 7.63453 12.6645 8.01659 12.7134 8.39908C12.7669 8.81023 12.8199 9.22078 12.8726 9.63074C12.9158 9.95631 12.9605 10.2809 13.0028 10.6055C13.042 10.8996 13.0789 11.1936 13.1173 11.4869C13.1378 11.6484 13.1597 11.8087 13.1786 11.9701C13.1887 12.0546 13.1808 12.0671 13.0994 12.0784C12.8806 12.1128 12.6608 12.145 12.4409 12.1773C12.038 12.238 11.6346 12.2991 11.2306 12.3607C11.1906 12.3665 11.1506 12.3744 11.1098 12.3792C11.0994 12.3805 11.089 12.3812 11.0786 12.3813C11.0445 12.3815 11.0362 12.3678 11.0292 12.3169ZM6.32709 10.4229C6.02521 10.3186 5.72052 10.2206 5.41786 10.1203C5.39348 10.1124 5.37098 10.1041 5.33223 10.0898C6.36378 9.35692 7.44467 8.70126 8.56665 8.1278C8.54149 8.13572 8.51571 8.14525 8.49055 8.1543C7.75617 8.44351 7.04397 8.78443 6.34178 9.14732C5.88364 9.38289 5.42973 9.62719 4.97535 9.87213C4.93539 9.89484 4.89121 9.90846 4.84575 9.91208C4.80029 9.9157 4.7546 9.90924 4.71175 9.89313C4.37519 9.78003 4.03706 9.6713 3.69971 9.5603C3.67612 9.55173 3.65283 9.54204 3.62752 9.53186C3.74909 9.41747 5.30161 8.71205 6.2899 8.32217C7.1946 7.96526 8.11477 7.65618 9.04431 7.37181C8.969 7.38619 8.89384 7.39863 8.81837 7.41366C8.20421 7.54291 7.59824 7.71072 7.00382 7.91615C5.86121 8.30358 4.74016 8.75597 3.6458 9.27124C3.56877 9.30695 3.49205 9.34169 3.41517 9.37804C3.3428 9.41283 3.26031 9.41774 3.18455 9.39178C2.79912 9.265 2.41318 9.13779 2.02672 9.01015C2.01755 9.00524 2.00863 8.99985 2 8.99399C2.03281 8.97541 2.05641 8.96167 2.08094 8.94859C2.66833 8.64926 3.27424 8.39051 3.89471 8.17401C4.80222 7.84732 5.7288 7.58589 6.66303 7.35372C7.49288 7.14658 8.3293 6.96691 9.17181 6.82344C9.72948 6.7265 10.2898 6.64345 10.8506 6.56492C11.3832 6.48931 11.9183 6.42856 12.4525 6.36474C12.8981 6.31045 13.3444 6.26036 13.79 6.21124C13.8599 6.20652 13.93 6.20593 14 6.20947C13.9852 6.24517 13.9514 6.24938 13.9264 6.26101C13.6764 6.37411 13.4264 6.48559 13.1772 6.59934C11.8467 7.20976 10.539 7.86719 9.269 8.60282C8.44774 9.0772 7.65679 9.60037 6.88491 10.1568C6.77553 10.2344 6.66428 10.3087 6.55678 10.388C6.51606 10.4202 6.46645 10.438 6.41521 10.4389C6.38522 10.4383 6.35549 10.4329 6.32709 10.4229ZM6.70209 7.18697C6.76574 6.71949 6.82902 6.25191 6.89194 5.78421C6.95147 5.34215 7.00866 4.90009 7.06772 4.45836C7.08647 4.31795 7.10366 4.17738 7.12569 4.03827C7.13413 4.00826 7.1315 3.97608 7.1183 3.94797C7.10511 3.91985 7.0823 3.89779 7.05428 3.88607C6.78741 3.73096 6.52396 3.57181 6.25959 3.41428C6.22273 3.39932 6.19274 3.37045 6.17568 3.3335C6.21255 3.3356 6.23912 3.33447 6.26521 3.33899C6.71626 3.40976 7.16731 3.48053 7.61835 3.55129C8.00378 3.61172 8.38951 3.67183 8.77556 3.73161C8.919 3.75326 9.06275 3.77766 9.20619 3.79753C9.26665 3.80668 9.3276 3.81208 9.38869 3.81369C9.43291 3.81514 9.47666 3.81369 9.52057 3.81369C9.58119 3.81369 9.64166 3.81369 9.70197 3.81643C9.95441 3.81532 10.2062 3.79011 10.4542 3.74114C10.5987 3.72094 10.7421 3.69655 10.8859 3.6749C10.9595 3.66364 11.0346 3.67646 11.1007 3.71157C11.4247 3.87961 11.7472 4.04813 12.0711 4.21406C12.1059 4.23047 12.1358 4.25637 12.1575 4.28898C12.1792 4.3216 12.192 4.3597 12.1944 4.39922C12.2201 4.61007 12.2476 4.82141 12.275 5.03097C12.3239 5.40646 12.3725 5.78017 12.4211 6.15486C12.4258 6.19089 12.4283 6.22692 12.432 6.27054C11.7133 6.36264 10.9978 6.45263 10.2732 6.54521C10.222 6.19622 10.1806 5.84512 10.1342 5.49629C10.0878 5.14746 10.0432 4.79976 9.99854 4.45448C9.75992 4.43365 9.52011 4.43159 9.28119 4.44834C9.17759 5.21564 9.07306 5.9865 8.97056 6.75235C8.21117 6.91392 7.45945 7.07549 6.7024 7.23868C6.70116 7.22147 6.70106 7.2042 6.70209 7.18697Z" fill="white"/>
</g>
</g>
</svg>
