<svg xmlns="http://www.w3.org/2000/svg" xmlns:xlink="http://www.w3.org/1999/xlink" width="20" height="20" viewBox="0 0 20 20"><defs><style>.a{fill:#fff;stroke:#707070;stroke-linecap:round;stroke-linejoin:round;}.b{clip-path:url(#a);}.c{stroke:#000;stroke-width:1.1px;}</style><clipPath id="a"><rect class="a" width="20" height="20" transform="translate(360 1329)"/></clipPath></defs><g class="b" transform="translate(-360 -1329)"><g transform="translate(212.805 1181.68)"><path class="c" d="M163.29,150.063a.939.939,0,0,1,.938.938v12.19a.939.939,0,0,1-.938.938H151.1a.939.939,0,0,1-.938-.938V151a.939.939,0,0,1,.938-.938h12.19m0-.938H151.1A1.875,1.875,0,0,0,149.226,151v12.19a1.875,1.875,0,0,0,1.875,1.874h12.19a1.875,1.875,0,0,0,1.875-1.874V151A1.875,1.875,0,0,0,163.29,149.125Z" transform="translate(0)"/><path class="c" d="M277.494,369.776a.446.446,0,0,1-.418-.468v-3.283a.421.421,0,1,1,.836,0v3.281A.446.446,0,0,1,277.494,369.776Zm4.187,0a.446.446,0,0,1-.418-.468v-6.564a.421.421,0,1,1,.836,0v6.564A.444.444,0,0,1,281.681,369.776Zm4.188,0a.446.446,0,0,1-.418-.468v-4.69a.421.421,0,1,1,.836,0v4.687A.448.448,0,0,1,285.869,369.776Z" transform="translate(-124.487 -208.461)"/></g></g></svg>