<svg xmlns="http://www.w3.org/2000/svg" xmlns:xlink="http://www.w3.org/1999/xlink" width="20" height="20" viewBox="0 0 20 20"><defs><style>.a{fill:#fff;stroke:#707070;stroke-linecap:round;stroke-linejoin:round;}.b{clip-path:url(#a);}.c{stroke:#000;stroke-width:0.3px;}</style><clipPath id="a"><rect class="a" width="20" height="20" transform="translate(778 2312)"/></clipPath></defs><g class="b" transform="translate(-778 -2312)"><g transform="translate(636.224 2230.729)"><path class="c" d="M159.735,88.534l-6.093-6.147a1.7,1.7,0,0,0-.324-.252q-.047-.027-.1-.05c-.021-.011-.042-.02-.062-.028a1.586,1.586,0,0,0-.638-.137h-7.584A1.578,1.578,0,0,0,143.36,83.5V99.046a1.578,1.578,0,0,0,1.579,1.578h4.646a.789.789,0,1,0,0-1.579h-4.647V83.5h6.839V88.76a1.577,1.577,0,0,0,1.579,1.578h5.259v3.419a.789.789,0,1,0,1.579,0V89.647a1.578,1.578,0,0,0-.458-1.112Zm-6.381.224v-4.42l4.379,4.42Z"/><path class="c" d="M487.029,544.151a3.741,3.741,0,1,1,.87-.98.7.7,0,0,1,.249.161l.992.991a.7.7,0,1,1-.991.992l-.992-.991A.7.7,0,0,1,487.029,544.151Zm-.627-1.175a2.338,2.338,0,1,0-3.306,0,2.337,2.337,0,0,0,3.306,0Z" transform="translate(-329.901 -445.155)"/></g></g></svg>