<svg xmlns="http://www.w3.org/2000/svg" xmlns:xlink="http://www.w3.org/1999/xlink" width="20" height="20" viewBox="0 0 20 20"><defs><style>.a{fill:#fff;stroke:#707070;stroke-linecap:round;stroke-linejoin:round;}.b{clip-path:url(#a);}.c{stroke:#000;stroke-width:0.3px;}</style><clipPath id="a"><rect class="a" width="20" height="20" transform="translate(950 460)"/></clipPath></defs><g class="b" transform="translate(-950 -460)"><path d="M137.234,132.84a1.47,1.47,0,0,0,1.458-1.446,1.048,1.048,0,0,0-1.093-1.127,1.44,1.44,0,0,0-1.438,1.427A1,1,0,0,0,137.234,132.84Zm-.077,7.139c-.134,0-.192-.188-.058-.732l.756-3.082c.288-1.127.192-1.86-.383-1.86a7.444,7.444,0,0,0-3.7,2l.288.507a4.233,4.233,0,0,1,1.361-.644c.134,0,.115.188,0,.657l-.661,2.932c-.4,1.653.019,2.029.6,2.029a5.889,5.889,0,0,0,3.424-2.03l-.326-.469A2.9,2.9,0,0,1,137.157,139.979Z" transform="translate(823.727 333.976)"/><path class="c" d="M140.28,126.762h-8.512a5.007,5.007,0,0,0-5.007,5.007v8.512a5.007,5.007,0,0,0,5.007,5.007h8.512a5.007,5.007,0,0,0,5.007-5.007v-8.512A5.007,5.007,0,0,0,140.28,126.762Zm3.5,13.519a3.505,3.505,0,0,1-3.5,3.5h-8.512a3.505,3.505,0,0,1-3.5-3.5v-8.512a3.505,3.505,0,0,1,3.5-3.5h8.512a3.5,3.5,0,0,1,3.5,3.5v8.512Z" transform="translate(823.977 333.976)"/></g></svg>