<svg xmlns="http://www.w3.org/2000/svg" width="13.343" height="13.347" viewBox="0 0 13.343 13.347"><path d="M97.987,92.98l-4.665,4.665a1.336,1.336,0,0,1-1.889,0L85.44,91.475a.949.949,0,0,1-.405-.777l0-5a1.012,1.012,0,0,1,.987-1.005l5.354,0a.984.984,0,0,1,.794.239l5.812,6.155a1.336,1.336,0,0,1,0,1.887ZM89.38,87.537a1.169,1.169,0,1,0,1.169,1.169A1.169,1.169,0,0,0,89.38,87.537Zm5.8,2.884a.5.5,0,0,0-.709,0l-3.541,3.542a.5.5,0,1,0,.708.708l3.542-3.542a.5.5,0,0,0,0-.708Z" transform="translate(-85.034 -84.689)"/></svg>