<svg xmlns="http://www.w3.org/2000/svg" xmlns:xlink="http://www.w3.org/1999/xlink" width="20" height="20" viewBox="0 0 20 20"><defs><style>.a{fill:#fff;stroke:#707070;stroke-linecap:round;stroke-linejoin:round;}.b{clip-path:url(#a);}.c{stroke:#000;stroke-width:0.2px;}</style><clipPath id="a"><rect class="a" width="20" height="20" transform="translate(924.834 2328.834)"/></clipPath></defs><g class="b" transform="translate(-924.834 -2328.834)"><g transform="translate(925.836 2329.047)"><path class="c" d="M255.641,21.3H244.736V14.485c0-3.795,3.086-6.839,4.4-7.965a1.607,1.607,0,0,1,2.064,0c1.334,1.126,4.42,4.17,4.42,7.965V21.3ZM246.4,19.635h7.569v-5.15c0-3.065-2.606-5.651-3.795-6.652-1.168,1-3.795,3.586-3.795,6.652v5.15ZM250.137,7.791Z" transform="translate(-241.17 -6.144)"/><path class="c" d="M74.866,265.4H71.238a1.556,1.556,0,0,1-1.606-1.5v-1.46a1.474,1.474,0,0,1,.709-1.246l4.5-2.784V265.4ZM71.3,263.846h1.877v-2.531L71.3,262.483ZM86.042,265.4H82.414v-6.97l4.5,2.784a1.428,1.428,0,0,1,.709,1.246v1.46A1.534,1.534,0,0,1,86.042,265.4Zm-1.96-1.557h1.877v-1.363l-1.877-1.168Zm-5.421-3.407a2.225,2.225,0,1,1,2.377-2.219A2.3,2.3,0,0,1,78.661,260.439Zm0-2.881a.694.694,0,0,0-.709.662.711.711,0,1,0,.709-.662Zm-.021,12.927a.81.81,0,0,1-.834-.779v-2.115a.836.836,0,0,1,1.668,0v2.115A.81.81,0,0,1,78.64,270.485Zm-3.274-.2a.81.81,0,0,1-.834-.779v-1.265a.836.836,0,0,1,1.668,0V269.5A.81.81,0,0,1,75.366,270.28Zm6.568,0a.81.81,0,0,1-.834-.779v-1.265a.836.836,0,0,1,1.668,0V269.5A.81.81,0,0,1,81.934,270.28Z" transform="translate(-69.632 -250.912)"/></g></g></svg>