<svg xmlns="http://www.w3.org/2000/svg" xmlns:xlink="http://www.w3.org/1999/xlink" width="21" height="21" viewBox="0 0 21 21"><defs><style>.a{fill:#fff;stroke:#707070;stroke-linecap:round;stroke-linejoin:round;}.b{clip-path:url(#a);}.c{stroke:#000;stroke-width:0.2px;}</style><clipPath id="a"><rect class="a" width="21" height="21" transform="translate(554 2328.337)"/></clipPath></defs><g class="b" transform="translate(-554 -2328.337)"><path class="c" d="M100.446,71.292l-.674.674a1.5,1.5,0,0,1-.39,1.453l-1.064,1.064a1.5,1.5,0,0,1-2.127,0l-4.255-4.255a1.5,1.5,0,0,1,0-2.128L93,67.037a1.5,1.5,0,0,1,1.453-.39l4.54-4.54a1.5,1.5,0,0,1,.39-1.453l1.064-1.064a1.5,1.5,0,0,1,2.128,0l4.255,4.254a1.5,1.5,0,0,1,0,2.127l-1.064,1.064a1.5,1.5,0,0,1-1.453.39l-.674.674,7.979,7.979a1.5,1.5,0,0,1,0,2.127l-1.064,1.064a1.5,1.5,0,0,1-2.127,0Zm-1.6-.532,4.255-4.255-3.192-3.192-4.255,4.255Zm3.192-9.574a.752.752,0,1,0-1.064,1.064l3.191,3.192a.752.752,0,1,0,1.064-1.064l-3.19-3.192ZM94.6,68.633A.752.752,0,1,0,93.532,69.7l3.192,3.191a.752.752,0,1,0,1.064-1.064L94.6,68.632Zm9.042,1.594a.753.753,0,1,0-1.064,1.065l6.382,6.382a.752.752,0,1,0,1.064-1.064l-6.383-6.382Z" transform="translate(462.937 2269.303)"/></g></svg>