<svg xmlns="http://www.w3.org/2000/svg" xmlns:xlink="http://www.w3.org/1999/xlink" width="20" height="20" viewBox="0 0 20 20"><defs><style>.a{fill:#fff;stroke:#707070;stroke-linecap:round;stroke-linejoin:round;}.b{clip-path:url(#a);}.c{stroke:#000;}</style><clipPath id="a"><rect class="a" width="20" height="20" transform="translate(936 525)"/></clipPath></defs><g class="b" transform="translate(-936 -525)"><g transform="translate(-10.541 -1.134)"><path d="M126.4,199.111a1.254,1.254,0,1,0,1.243,1.254A1.179,1.179,0,0,0,126.4,199.111Z" transform="translate(822.387 329.272)"/><path d="M126.4,199.111a1.254,1.254,0,1,0,1.243,1.254A1.179,1.179,0,0,0,126.4,199.111Z" transform="translate(822.387 335.77)"/><path d="M126.4,199.111a1.254,1.254,0,1,0,1.243,1.254A1.179,1.179,0,0,0,126.4,199.111Z" transform="translate(822.387 342.269)"/><path class="c" d="M365.33,229H353.376a.724.724,0,0,1,0-1.444H365.33a.656.656,0,0,1,.664.722A.742.742,0,0,1,365.33,229Z" transform="translate(599.044 301.36)"/><path class="c" d="M365.33,485H353.376a.724.724,0,0,1,0-1.444H365.33a.656.656,0,0,1,.664.722A.742.742,0,0,1,365.33,485Z" transform="translate(599.044 51.857)"/><path class="c" d="M365.33,741H353.376a.724.724,0,0,1,0-1.444H365.33a.656.656,0,0,1,.664.722A.742.742,0,0,1,365.33,741Z" transform="translate(599.044 -197.646)"/></g></g></svg>