<svg xmlns="http://www.w3.org/2000/svg" xmlns:xlink="http://www.w3.org/1999/xlink" width="20" height="20" viewBox="0 0 20 20"><defs><style>.a{fill:#fff;stroke:#707070;}.b{clip-path:url(#a);}.c{stroke:#000;stroke-linecap:round;stroke-linejoin:round;stroke-width:0.6px;}</style><clipPath id="a"><rect class="a" width="20" height="20" transform="translate(946 299)"/></clipPath></defs><g class="b" transform="translate(-946 -299)"><g transform="translate(853.942 284.395)"><path class="c" d="M269.409,313.453h9.72v1.052h-9.72Zm0,3.667h9.722v1.052h-9.722Z" transform="translate(-172.215 -292.638)"/><path class="c" d="M107.563,15.4H96.552A2.854,2.854,0,0,0,93.578,18.1V31.483a2.854,2.854,0,0,0,2.974,2.708h7.583l6.074-5.616h.328V18.1a2.854,2.854,0,0,0-2.974-2.708ZM104,32.952V30.21a2.238,2.238,0,0,1,2.332-2.124h2.929L104,32.952Zm5.486-5.823h-3.153a3.247,3.247,0,0,0-3.384,3.082v3.023H96.552a1.844,1.844,0,0,1-1.922-1.75V18.1a1.844,1.844,0,0,1,1.922-1.75h11.011a1.844,1.844,0,0,1,1.922,1.75v9.024Z"/></g></g></svg>