<svg xmlns="http://www.w3.org/2000/svg" xmlns:xlink="http://www.w3.org/1999/xlink" width="20" height="20" viewBox="0 0 20 20"><defs><style>.a{fill:#fff;stroke:#707070;stroke-linecap:round;stroke-linejoin:round;}.b{clip-path:url(#a);}.c{stroke:#000;stroke-width:0.2px;}</style><clipPath id="a"><rect class="a" width="20" height="20" transform="translate(372.354 916.354)"/></clipPath></defs><g class="b" transform="translate(-372.354 -916.354)"><path class="c" d="M297.529,320.012H288.3a1,1,0,0,1,0-2h9.229a1,1,0,1,1,0,2Zm0,6H288.3a1,1,0,0,1,0-2h9.229a1,1,0,0,1,0,2Zm0,5.992H288.3a1,1,0,0,1,0-2h9.229a1,1,0,1,1,0,2Zm4.092.9a.976.976,0,0,1-.48-.124,1,1,0,0,1-.516-.876V318.1a1,1,0,1,1,2,0v11.985l1.236-.78A1,1,0,1,1,304.929,331l-2.768,1.748A1.061,1.061,0,0,1,301.621,332.9Z" transform="translate(86.005 600.855)"/></g></svg>