<?xml version="1.0" standalone="no"?><!DOCTYPE svg PUBLIC "-//W3C//DTD SVG 1.1//EN" "http://www.w3.org/Graphics/SVG/1.1/DTD/svg11.dtd"><svg t="1659082032523" class="icon" viewBox="0 0 1024 1024" version="1.1" xmlns="http://www.w3.org/2000/svg" p-id="6286" width="48" height="48" xmlns:xlink="http://www.w3.org/1999/xlink"><defs><style type="text/css">@font-face { font-family: feedback-iconfont; src: url("//at.alicdn.com/t/font_1031158_u69w8yhxdu.woff2?t=1630033759944") format("woff2"), url("//at.alicdn.com/t/font_1031158_u69w8yhxdu.woff?t=1630033759944") format("woff"), url("//at.alicdn.com/t/font_1031158_u69w8yhxdu.ttf?t=1630033759944") format("truetype"); }
</style></defs><path d="M146.752 429.184l-128-128A63.829333 63.829333 0 0 1 0 255.936c0-16.384 6.272-32.768 18.752-45.248l128-128a64.213333 64.213333 0 0 1 69.76-13.888A64.042667 64.042667 0 0 1 256 127.936V192h64v128h-64v63.936c0 25.856-15.616 49.28-39.488 59.136a64.106667 64.106667 0 0 1-69.76-13.888z m730.496 165.504l128 128c12.48 12.48 18.752 28.864 18.752 45.248s-6.272 32.768-18.752 45.248l-128 128a64.106667 64.106667 0 0 1-69.76 13.888A64.042667 64.042667 0 0 1 768 895.936V832h-64v-128h64v-64.064c0-25.856 15.616-49.28 39.488-59.136a64.213333 64.213333 0 0 1 69.76 13.888zM448 704h64v128h-64zM384 192h64v128h-64z m-64 384H64c-35.328 0-64 28.672-64 64v256a64 64 0 0 0 64 64h256a64 64 0 0 0 64-64V640c0-35.328-28.672-64-64-64z m-64 256H128v-128h128v128zM512 192h64v128h-64z m448-128H704a64 64 0 0 0-64 64v256a64 64 0 0 0 64 64h256a64 64 0 0 0 64-64V128a64 64 0 0 0-64-64z m-64 256h-128V192h128v128zM576 704h64v128h-64z" fill="" p-id="6287"></path></svg>