<svg xmlns="http://www.w3.org/2000/svg" xmlns:xlink="http://www.w3.org/1999/xlink" width="20" height="20" viewBox="0 0 20 20"><defs><style>.a{fill:#fff;stroke:#707070;}.b{clip-path:url(#a);}.c{stroke:#000;stroke-width:0.9px;}</style><clipPath id="a"><rect class="a" width="20" height="20" transform="translate(304 2407)"/></clipPath></defs><g class="b" transform="translate(-304 -2407)"><g transform="translate(0.669 0.666)"><path class="c" d="M80.747,73.419l1.542-1.764a.914.914,0,0,0-.511-1.575l-5.024-1.144L74.116,64.5a.913.913,0,0,0-1.656,0l-2.638,4.432L64.8,70.079a.915.915,0,0,0-.511,1.575l3.394,3.882-.467,5.139a.913.913,0,0,0,1.339.973l4.735-2.032-.347-.809L68.2,80.839c-.138.059-.129.066-.114-.085l.5-5.514-3.642-4.166c-.1-.113-.1-.1.044-.137l5.392-1.227,2.832-4.756c.077-.13.064-.13.142,0l2.831,4.756,5.392,1.227c.147.033.144.022.044.137l-1.542,1.765.663.58Zm0,0,1.542-1.764a.914.914,0,0,0-.511-1.575l-5.024-1.144L74.116,64.5a.913.913,0,0,0-1.656,0l-2.638,4.432L64.8,70.079a.915.915,0,0,0-.511,1.575l3.394,3.882-.467,5.139a.913.913,0,0,0,1.339.973l4.735-2.032-.347-.809L68.2,80.839c-.138.059-.129.066-.114-.085l.5-5.514-3.642-4.166c-.1-.113-.1-.1.044-.137l5.392-1.227,2.832-4.756c.077-.13.064-.13.142,0l2.831,4.756,5.392,1.227c.147.033.144.022.044.137l-1.542,1.765.663.58Z" transform="translate(240.127 2343.295)"/><path class="c" d="M452.845,499.474a3.964,3.964,0,1,0-3.964-3.964A3.964,3.964,0,0,0,452.845,499.474Zm0,.881a4.844,4.844,0,1,1,4.844-4.845A4.845,4.845,0,0,1,452.845,500.355Z" transform="translate(-135.011 1925.414)"/><path d="M1.292,0A.933.933,0,1,1,.359.933.933.933,0,0,1,1.292,0Z" transform="translate(315.178 2420.077)"/><path d="M1.136-.047A.933.933,0,1,1,.2.886.933.933,0,0,1,1.136-.047Z" transform="translate(317.987 2420.08)"/></g></g></svg>