<svg width="56" height="56" viewBox="0 0 56 56" fill="none" xmlns="http://www.w3.org/2000/svg">
<g id="Frame 2542">
<rect width="56" height="56" rx="10" fill="#1C203A"/>
<g id="Icon/List">
<path id="Border" fill-rule="evenodd" clip-rule="evenodd" d="M37.6002 17.2002H18.4002C17.7402 17.2002 17.2002 17.7402 17.2002 18.4002V25.6002C17.2002 26.2602 17.7402 26.8002 18.4002 26.8002H37.6002C38.2602 26.8002 38.8002 26.2602 38.8002 25.6002V18.4002C38.8002 17.7402 38.2602 17.2002 37.6002 17.2002ZM36.4002 24.4002H19.6002V19.6002H36.4002V24.4002ZM37.6002 29.2002H18.4002C17.7402 29.2002 17.2002 29.7402 17.2002 30.4002V37.6002C17.2002 38.2602 17.7402 38.8002 18.4002 38.8002H37.6002C38.2602 38.8002 38.8002 38.2602 38.8002 37.6002V30.4002C38.8002 29.7402 38.2602 29.2002 37.6002 29.2002ZM36.4002 36.4002H19.6002V31.6002H36.4002V36.4002Z" fill="white"/>
</g>
</g>
</svg>
