<svg width="56" height="56" viewBox="0 0 56 56" fill="none" xmlns="http://www.w3.org/2000/svg">
<g id="Frame 2548">
<rect width="56" height="56" rx="10" fill="#1C203A"/>
<g id="Icon/column">
<path id="747327 1 (Traced)" fill-rule="evenodd" clip-rule="evenodd" d="M18.1321 16.0759C17.2241 16.2725 16.3882 17.0399 16.1068 17.9353L16 18.2751V21.5318V24.7885L16.1068 25.1283C16.3918 26.0352 17.2275 26.7946 18.1555 26.9903C18.6397 27.0925 24.3722 27.0925 24.8563 26.9903C25.7844 26.7946 26.62 26.0352 26.9051 25.1283L27.0119 24.7885V21.5318V18.2751L26.9051 17.9353C26.62 17.0284 25.7844 16.269 24.8563 16.0732C24.3859 15.974 18.5919 15.9763 18.1321 16.0759ZM31.0278 16.0972C30.5148 16.2316 30.1517 16.4442 29.7515 16.8443C29.3456 17.2502 29.1376 17.6097 29.0022 18.139C28.9147 18.4811 28.9096 18.6669 28.9096 21.5318C28.9096 24.3967 28.9147 24.5825 29.0022 24.9246C29.1376 25.4539 29.3456 25.8134 29.7515 26.2193C30.1574 26.6252 30.5169 26.8332 31.0462 26.9686C31.3883 27.0561 31.5741 27.0612 34.439 27.0612C37.3039 27.0612 37.4897 27.0561 37.8318 26.9686C38.3611 26.8332 38.7206 26.6252 39.1265 26.2193C39.5324 25.8134 39.7404 25.4539 39.8758 24.9246C39.9633 24.5825 39.9684 24.3967 39.9684 21.5318C39.9684 18.6669 39.9633 18.4811 39.8758 18.139C39.7404 17.6097 39.5324 17.2502 39.1265 16.8443C38.7206 16.4384 38.3611 16.2304 37.8318 16.095C37.489 16.0073 37.3086 16.0026 34.4198 16.005C31.5718 16.0074 31.3471 16.0135 31.0278 16.0972ZM24.622 17.9654C24.8489 18.07 24.9917 18.2184 25.0884 18.45C25.1976 18.7113 25.1976 24.3523 25.0884 24.6136C24.9917 24.8452 24.8489 24.9935 24.622 25.0982C24.4462 25.1793 24.2534 25.1848 21.5161 25.1858C18.9864 25.1867 18.5745 25.1771 18.4241 25.1143C18.1925 25.0175 18.0442 24.8748 17.9395 24.6479C17.8584 24.4721 17.8529 24.2792 17.852 21.542C17.8511 19.0122 17.8606 18.6004 17.9235 18.45C18.0202 18.2184 18.163 18.07 18.3898 17.9654C18.5657 17.8842 18.7576 17.8789 21.5059 17.8789C24.2543 17.8789 24.4461 17.8842 24.622 17.9654ZM37.5833 18.0073C37.7855 18.1129 37.8579 18.1853 37.9635 18.3875L38.094 18.6372V21.5318V24.4264L37.9635 24.6761C37.8579 24.8783 37.7855 24.9507 37.5833 25.0563L37.3336 25.1868H34.439H31.5444L31.2947 25.0563C31.0925 24.9507 31.0201 24.8783 30.9145 24.6761L30.784 24.4264V21.5318V18.6372L30.9145 18.3875C31.0201 18.1853 31.0925 18.1129 31.2947 18.0073L31.5444 17.8768H34.439H37.3336L37.5833 18.0073ZM18.1321 29.0089C17.2241 29.2056 16.3882 29.973 16.1068 30.8684L16 31.2082V34.4649V37.7216L16.1068 38.0613C16.3918 38.9682 17.2275 39.7277 18.1555 39.9234C18.6397 40.0255 24.3722 40.0255 24.8563 39.9234C25.7844 39.7277 26.62 38.9682 26.9051 38.0613L27.0119 37.7216V34.4649V31.2082L26.9051 30.8684C26.62 29.9615 25.7844 29.202 24.8563 29.0063C24.3859 28.9071 18.5919 28.9094 18.1321 29.0089ZM31.0278 29.0303C30.5148 29.1647 30.1517 29.3773 29.7515 29.7774C29.3456 30.1833 29.1376 30.5428 29.0022 31.0721C28.9147 31.4142 28.9096 31.6 28.9096 34.4649C28.9096 37.3298 28.9147 37.5155 29.0022 37.8576C29.1376 38.387 29.3456 38.7465 29.7515 39.1524C30.1574 39.5582 30.5169 39.7663 31.0462 39.9017C31.3883 39.9892 31.5741 39.9942 34.439 39.9942C37.3039 39.9942 37.4897 39.9892 37.8318 39.9017C38.3611 39.7663 38.7206 39.5582 39.1265 39.1524C39.5324 38.7465 39.7404 38.387 39.8758 37.8576C39.9633 37.5155 39.9684 37.3298 39.9684 34.4649C39.9684 31.6 39.9633 31.4142 39.8758 31.0721C39.7404 30.5428 39.5324 30.1833 39.1265 29.7774C38.7206 29.3715 38.3611 29.1635 37.8318 29.0281C37.489 28.9404 37.3086 28.9357 34.4198 28.9381C31.5718 28.9405 31.3471 28.9466 31.0278 29.0303ZM24.622 30.8984C24.8489 31.0031 24.9917 31.1515 25.0884 31.383C25.1976 31.6444 25.1976 37.2854 25.0884 37.5467C24.9917 37.7783 24.8489 37.9266 24.622 38.0313C24.4462 38.1124 24.2534 38.1179 21.5161 38.1188C18.9864 38.1197 18.5745 38.1102 18.4241 38.0473C18.1925 37.9506 18.0442 37.8078 17.9395 37.581C17.8584 37.4052 17.8529 37.2123 17.852 34.4751C17.8511 31.9453 17.8606 31.5335 17.9235 31.383C18.0202 31.1515 18.163 31.0031 18.3898 30.8984C18.5657 30.8173 18.7576 30.8119 21.5059 30.8119C24.2543 30.8119 24.4461 30.8173 24.622 30.8984ZM37.5833 30.9403C37.7855 31.0459 37.8579 31.1184 37.9635 31.3206L38.094 31.5703V34.4649V37.3594L37.9635 37.6092C37.8579 37.8113 37.7855 37.8838 37.5833 37.9894L37.3336 38.1199H34.439H31.5444L31.2947 37.9894C31.0925 37.8838 31.0201 37.8113 30.9145 37.6092L30.784 37.3594V34.4649V31.5703L30.9145 31.3206C31.0201 31.1184 31.0925 31.0459 31.2947 30.9403L31.5444 30.8099H34.439H37.3336L37.5833 30.9403Z" fill="#56586B"/>
</g>
</g>
</svg>
