<svg width="33" height="32" viewBox="0 0 33 32" fill="none" xmlns="http://www.w3.org/2000/svg">
<g id="Icon/Reload">
<path id="Vector" d="M29.9461 14.447H29.9447C29.7409 14.4472 29.5392 14.4875 29.351 14.5656C29.1628 14.6438 28.9918 14.7582 28.8479 14.9024C28.7039 15.0466 28.5898 15.2178 28.5119 15.4061C28.4341 15.5944 28.3942 15.7962 28.3943 16C28.3924 18.1752 27.7942 20.3083 26.6648 22.1674C25.5353 24.0266 23.9179 25.5405 21.9882 26.5448C20.0586 27.549 17.8905 28.0052 15.7198 27.8636C13.549 27.7221 11.4586 26.9882 9.6757 25.7418C4.30308 21.98 2.99264 14.5487 6.75464 9.17631C10.5166 3.8039 17.9484 2.4934 23.321 6.25533C24.1338 6.82295 24.8725 7.48991 25.52 8.24071H21.1533C20.7418 8.24071 20.3471 8.40418 20.0561 8.69516C19.7651 8.98613 19.6017 9.38078 19.6017 9.79229C19.6017 10.2038 19.7651 10.5984 20.0561 10.8894C20.3471 11.1804 20.7418 11.3439 21.1533 11.3439H28.3944C28.8059 11.3439 29.2006 11.1804 29.4916 10.8894C29.7826 10.5984 29.9461 10.2038 29.9461 9.79229V2.55158C29.9461 2.14008 29.7826 1.74543 29.4916 1.45445C29.2006 1.16347 28.8059 1 28.3944 1C27.9829 1 27.5882 1.16347 27.2972 1.45445C27.0062 1.74543 26.8427 2.14008 26.8427 2.55158V5.13541C26.2982 4.6188 25.716 4.1434 25.101 3.71313C23.4876 2.58348 21.6675 1.78265 19.7445 1.35638C17.8216 0.930111 15.8336 0.886743 13.8939 1.22875C11.9542 1.57076 10.1009 2.29145 8.43973 3.34968C6.77859 4.4079 5.34215 5.78293 4.21244 7.39626C1.93088 10.6545 1.03718 14.6856 1.72793 18.6028C2.41869 22.52 4.63732 26.0023 7.89575 28.2838C10.4045 30.0507 13.3979 30.9994 16.4665 31C17.3504 30.9996 18.2325 30.922 19.1028 30.7682C22.5756 30.1556 25.7215 28.3393 27.9882 25.638C30.2549 22.9368 31.4974 19.5234 31.4977 15.9973C31.4974 15.586 31.3337 15.1917 31.0428 14.901C30.7519 14.6103 30.3574 14.447 29.9461 14.447Z" fill="white"/>
</g>
</svg>
